<svg width="70" height="70" viewBox="0 0 70 70" fill="none" xmlns="http://www.w3.org/2000/svg">
<path d="M35 18.0911V9.33333" stroke="black" stroke-width="1.5" stroke-linecap="round"/>
<path fill-rule="evenodd" clip-rule="evenodd" d="M35 38.8889C35 38.8889 42 27.2222 39.6667 22.5556C39.6667 22.5556 38.1111 18.6667 35 18.6667C31.8889 18.6667 30.3333 22.5556 30.3333 22.5556C28 27.2222 35 38.8889 35 38.8889Z" fill="black" stroke="black" stroke-width="1.5"/>
<path fill-rule="evenodd" clip-rule="evenodd" d="M19.4444 57.5556C28 63 42 63 50.5555 57.5556V46.6667C50.5555 46.6667 64.5555 39.6667 59.8889 30.3333C53.6667 20.2222 38.8889 24.8889 35 36.5556V42V36.5556C31.1111 24.8889 16.3333 20.2222 10.1111 30.3333C5.44444 39.6667 19.4444 46.6667 19.4444 46.6667V57.5556Z" fill="black" stroke="black" stroke-width="1.5" stroke-linecap="round" stroke-linejoin="round"/>
<path d="M31.1111 12.4444H38.8889" stroke="black" stroke-width="1.5" stroke-linecap="round"/>
<path d="M49.7778 45.8889C49.7778 45.8889 63 39.6667 59.1578 30.8778C53.1222 21.7778 38.8889 28 35 38.1111V41.3778V38.1111C31.1111 28 16.8778 21.7778 10.8422 30.8778C7 39.6667 20.2222 45.8889 20.2222 45.8889" stroke="white" stroke-width="1.5" stroke-linecap="round" stroke-linejoin="round"/>
<path d="M19.4444 46.6667C28 42 42 42 50.5555 46.6667M19.4444 52.1111C28 47.4444 42 47.4444 50.5555 52.1111M19.4444 57.5556C28 52.8889 42 52.8889 50.5555 57.5556" stroke="white" stroke-width="1.5" stroke-linecap="round" stroke-linejoin="round"/>
</svg>
