<svg width="70" height="70" viewBox="0 0 70 70" fill="none" xmlns="http://www.w3.org/2000/svg">
<path d="M35 14C31.5622 14 28.7778 16.7844 28.7778 20.2222C28.7778 21.6067 29.2289 22.8822 29.9911 23.9244C26.9578 25.6667 24.8889 28.9178 24.8889 32.6667C24.8889 35.8244 26.3511 38.64 28.6378 40.4911C23.9711 42.14 17.1111 49.1244 17.1111 61.4444H52.8889C52.8889 49.1244 46.0289 42.14 41.3622 40.4911C43.6489 38.64 45.1111 35.8244 45.1111 32.6667C45.1111 28.9178 43.0422 25.6667 40.0089 23.9244C40.7711 22.8822 41.2222 21.6067 41.2222 20.2222C41.2222 16.7844 38.4378 14 35 14Z" fill="black" stroke="black" stroke-width="1.5" stroke-linecap="round"/>
</svg>
