<svg width="70" height="70" viewBox="0 0 70 70" fill="none" xmlns="http://www.w3.org/2000/svg">
<path fill-rule="evenodd" clip-rule="evenodd" d="M14 61.1333H56V56.4667H14V61.1333Z" fill="black" stroke="black" stroke-width="1.5" stroke-linejoin="round"/>
<path fill-rule="evenodd" clip-rule="evenodd" d="M19.4444 50.2444L21.7778 46.3556H48.2222L50.5556 50.2444H19.4444Z" fill="black" stroke="black" stroke-width="1.5" stroke-linejoin="round"/>
<path fill-rule="evenodd" clip-rule="evenodd" d="M18.6667 56.4667V50.2444H51.3333V56.4667H18.6667Z" fill="black" stroke="black" stroke-width="1.5" stroke-linejoin="round"/>
<path fill-rule="evenodd" clip-rule="evenodd" d="M21.7778 46.3556V26.1333H48.2222V46.3556H21.7778Z" fill="black" stroke="black" stroke-width="1.5"/>
<path fill-rule="evenodd" clip-rule="evenodd" d="M21.7778 26.1333L17.1111 22.2444H52.8889L48.2222 26.1333H21.7778Z" fill="black" stroke="black" stroke-width="1.5" stroke-linejoin="round"/>
<path fill-rule="evenodd" clip-rule="evenodd" d="M17.1111 22.2444V14.4667H23.3333V17.5778H31.1111V14.4667H38.8889V17.5778H46.6667V14.4667H52.8889V22.2444H17.1111Z" fill="black" stroke="black" stroke-width="1.5" stroke-linejoin="round"/>
<path d="M18.6667 55.6889H51.3333" stroke="white" stroke-linecap="round"/>
<path d="M20.2222 49.4667H49.7778" stroke="white" stroke-linecap="round"/>
<path d="M21.7778 46.3556H48.2222" stroke="white" stroke-linecap="round"/>
<path d="M21.7778 26.1333H48.2222" stroke="white" stroke-linecap="round"/>
<path d="M17.1111 22.2444H52.8889" stroke="white" stroke-linecap="round"/>
</svg>
