<svg width="70" height="70" viewBox="0 0 70 70" fill="none" xmlns="http://www.w3.org/2000/svg">
<path fill-rule="evenodd" clip-rule="evenodd" d="M34.2222 16.0222C50.5556 17.5778 59.8889 28.4667 59.1111 61.1333H23.3333C23.3333 47.1333 38.8889 51.0222 35.7778 28.4667" fill="white"/>
<path d="M34.2222 16.0222C50.5556 17.5778 59.8889 28.4667 59.1111 61.1333H23.3333C23.3333 47.1333 38.8889 51.0222 35.7778 28.4667" stroke="black" stroke-width="1.5" stroke-linecap="round" stroke-linejoin="round"/>
<path fill-rule="evenodd" clip-rule="evenodd" d="M37.3333 28.4667C37.9244 32.9933 28.7 39.9311 24.8889 42.4667C20.2222 45.5778 20.5022 49.2178 17.1111 48.6889C15.4902 47.2267 19.3044 43.96 17.1111 44.0222C15.5556 44.0222 17.4067 45.9356 15.5556 47.1333C14 47.1333 9.32867 48.6889 9.33333 40.9111C9.33333 37.8 18.6667 22.2444 18.6667 22.2444C18.6667 22.2444 21.6067 19.2889 21.7778 16.8C20.6422 15.2538 21 13.6889 21 12.1333C22.5556 10.5778 25.6667 16.0222 25.6667 16.0222H28.7778C28.7778 16.0222 29.9911 12.9236 32.6667 11.3556C34.2222 11.3556 34.2222 16.0222 34.2222 16.0222" fill="white"/>
<path d="M37.3333 28.4667C37.9244 32.9933 28.7 39.9311 24.8889 42.4667C20.2222 45.5778 20.5022 49.2178 17.1111 48.6889C15.4902 47.2267 19.3044 43.96 17.1111 44.0222C15.5556 44.0222 17.4067 45.9356 15.5556 47.1333C14 47.1333 9.32867 48.6889 9.33333 40.9111C9.33333 37.8 18.6667 22.2444 18.6667 22.2444C18.6667 22.2444 21.6067 19.2889 21.7778 16.8C20.6422 15.2538 21 13.6889 21 12.1333C22.5556 10.5778 25.6667 16.0222 25.6667 16.0222H28.7778C28.7778 16.0222 29.9911 12.9236 32.6667 11.3556C34.2222 11.3556 34.2222 16.0222 34.2222 16.0222" stroke="black" stroke-width="1.5" stroke-linecap="round" stroke-linejoin="round"/>
<path fill-rule="evenodd" clip-rule="evenodd" d="M14.7778 40.1333C14.7778 40.3396 14.6958 40.5374 14.55 40.6833C14.4041 40.8292 14.2063 40.9111 14 40.9111C13.7937 40.9111 13.5959 40.8292 13.45 40.6833C13.3042 40.5374 13.2222 40.3396 13.2222 40.1333C13.2222 39.9271 13.3042 39.7292 13.45 39.5834C13.5959 39.4375 13.7937 39.3556 14 39.3556C14.2063 39.3556 14.4041 39.4375 14.55 39.5834C14.6958 39.7292 14.7778 39.9271 14.7778 40.1333Z" fill="black" stroke="black" stroke-width="1.5" stroke-linecap="round" stroke-linejoin="round"/>
<path fill-rule="evenodd" clip-rule="evenodd" d="M23.2291 24.9667C22.9197 25.5026 22.552 25.9756 22.2069 26.2816C21.8618 26.5876 21.5675 26.7016 21.3889 26.5984C21.2103 26.4953 21.1618 26.1835 21.2543 25.7316C21.3468 25.2797 21.5726 24.7248 21.882 24.1889C22.1914 23.653 22.5591 23.18 22.9042 22.874C23.2493 22.5679 23.5436 22.454 23.7222 22.5571C23.9009 22.6603 23.9493 22.9721 23.8568 23.4239C23.7643 23.8758 23.5385 24.4308 23.2291 24.9667V24.9667Z" fill="black" stroke="black" stroke-width="1.5" stroke-linecap="round" stroke-linejoin="round"/>
</svg>
