<svg width="70" height="70" viewBox="0 0 70 70" fill="none" xmlns="http://www.w3.org/2000/svg">
<path fill-rule="evenodd" clip-rule="evenodd" d="M14 61.1333H56V56.4667H14V61.1333Z" fill="white" stroke="black" stroke-width="1.5" stroke-linejoin="round"/>
<path fill-rule="evenodd" clip-rule="evenodd" d="M18.6667 56.4667V50.2444H51.3333V56.4667H18.6667Z" fill="white" stroke="black" stroke-width="1.5" stroke-linejoin="round"/>
<path fill-rule="evenodd" clip-rule="evenodd" d="M17.1111 22.2444V14.4667H23.3333V17.5778H31.1111V14.4667H38.8889V17.5778H46.6667V14.4667H52.8889V22.2444" fill="white"/>
<path d="M17.1111 22.2444V14.4667H23.3333V17.5778H31.1111V14.4667H38.8889V17.5778H46.6667V14.4667H52.8889V22.2444" stroke="black" stroke-width="1.5" stroke-linejoin="round"/>
<path fill-rule="evenodd" clip-rule="evenodd" d="M52.8889 22.2444L48.2222 26.9111H21.7778L17.1111 22.2444" fill="white"/>
<path d="M52.8889 22.2444L48.2222 26.9111H21.7778L17.1111 22.2444" stroke="black" stroke-width="1.5" stroke-linecap="round" stroke-linejoin="round"/>
<path fill-rule="evenodd" clip-rule="evenodd" d="M48.2222 26.9111V46.3556H21.7778V26.9111" fill="white"/>
<path d="M48.2222 26.9111V46.3556H21.7778V26.9111" stroke="black" stroke-width="1.5"/>
<path fill-rule="evenodd" clip-rule="evenodd" d="M48.2222 46.3556L50.5556 50.2444H19.4445L21.7778 46.3556" fill="white"/>
<path d="M48.2222 46.3556L50.5556 50.2444H19.4445L21.7778 46.3556" stroke="black" stroke-width="1.5" stroke-linecap="round" stroke-linejoin="round"/>
<path d="M17.1111 22.2444H52.8889" stroke="black" stroke-width="1.5" stroke-linecap="round"/>
</svg>
